<svg width="348" height="320" viewBox="0 0 348 320" fill="none" xmlns="http://www.w3.org/2000/svg">
<rect y="8" width="348" height="304" rx="5" fill="white"/>
<rect x="24" y="32" width="300" height="56" rx="5" fill="#F3F3F3"/>
<path d="M41.9844 66V54.5781H43.3125V66H41.9844ZM51.7812 63.6641C51.7812 64.4609 51.4844 65.0755 50.8906 65.5078C50.2969 65.9401 49.4635 66.1562 48.3906 66.1562C47.2552 66.1562 46.3698 65.9766 45.7344 65.6172V64.4141C46.1458 64.6224 46.5859 64.7865 47.0547 64.9062C47.5286 65.026 47.9844 65.0859 48.4219 65.0859C49.099 65.0859 49.6198 64.9792 49.9844 64.7656C50.349 64.5469 50.5312 64.2161 50.5312 63.7734C50.5312 63.4401 50.3854 63.1562 50.0938 62.9219C49.8073 62.6823 49.2448 62.401 48.4062 62.0781C47.6094 61.7812 47.0417 61.5234 46.7031 61.3047C46.3698 61.0807 46.1198 60.8281 45.9531 60.5469C45.7917 60.2656 45.7109 59.9297 45.7109 59.5391C45.7109 58.8411 45.9948 58.2917 46.5625 57.8906C47.1302 57.4844 47.9089 57.2812 48.8984 57.2812C49.8203 57.2812 50.7214 57.4688 51.6016 57.8438L51.1406 58.8984C50.2812 58.5443 49.5026 58.3672 48.8047 58.3672C48.1901 58.3672 47.7266 58.4635 47.4141 58.6562C47.1016 58.849 46.9453 59.1146 46.9453 59.4531C46.9453 59.6823 47.0026 59.8776 47.1172 60.0391C47.237 60.2005 47.4271 60.3542 47.6875 60.5C47.9479 60.6458 48.4479 60.8568 49.1875 61.1328C50.2031 61.5026 50.888 61.875 51.2422 62.25C51.6016 62.625 51.7812 63.0964 51.7812 63.6641ZM64.8125 66V60.4297C64.8125 59.7474 64.6667 59.237 64.375 58.8984C64.0833 58.5547 63.6302 58.3828 63.0156 58.3828C62.2083 58.3828 61.612 58.6146 61.2266 59.0781C60.8411 59.5417 60.6484 60.2552 60.6484 61.2188V66H59.3516V60.4297C59.3516 59.7474 59.2057 59.237 58.9141 58.8984C58.6224 58.5547 58.1667 58.3828 57.5469 58.3828C56.7344 58.3828 56.138 58.6276 55.7578 59.1172C55.3828 59.6016 55.1953 60.3984 55.1953 61.5078V66H53.8984V57.4375H54.9531L55.1641 58.6094H55.2266C55.4714 58.1927 55.8151 57.8672 56.2578 57.6328C56.7057 57.3984 57.2057 57.2812 57.7578 57.2812C59.0964 57.2812 59.9714 57.7656 60.3828 58.7344H60.4453C60.7005 58.2865 61.0703 57.9323 61.5547 57.6719C62.0391 57.4115 62.5911 57.2812 63.2109 57.2812C64.1797 57.2812 64.9036 57.5312 65.3828 58.0312C65.8672 58.526 66.1094 59.3203 66.1094 60.4141V66H64.8125ZM70.0859 66H68.7891V57.4375H70.0859V66ZM68.6797 55.1172C68.6797 54.8203 68.7526 54.6042 68.8984 54.4688C69.0443 54.3281 69.2266 54.2578 69.4453 54.2578C69.6536 54.2578 69.8333 54.3281 69.9844 54.4688C70.1354 54.6094 70.2109 54.8255 70.2109 55.1172C70.2109 55.4089 70.1354 55.6276 69.9844 55.7734C69.8333 55.9141 69.6536 55.9844 69.4453 55.9844C69.2266 55.9844 69.0443 55.9141 68.8984 55.7734C68.7526 55.6276 68.6797 55.4089 68.6797 55.1172ZM78.6953 66V60.4609C78.6953 59.763 78.5365 59.2422 78.2188 58.8984C77.901 58.5547 77.4036 58.3828 76.7266 58.3828C75.8307 58.3828 75.1745 58.625 74.7578 59.1094C74.3411 59.5938 74.1328 60.3932 74.1328 61.5078V66H72.8359V57.4375H73.8906L74.1016 58.6094H74.1641C74.4297 58.1875 74.8021 57.862 75.2812 57.6328C75.7604 57.3984 76.2943 57.2812 76.8828 57.2812C77.9141 57.2812 78.6901 57.5312 79.2109 58.0312C79.7318 58.526 79.9922 59.3203 79.9922 60.4141V66H78.6953ZM89.6719 57.4375V58.2578L88.0859 58.4453C88.2318 58.6276 88.362 58.8672 88.4766 59.1641C88.5911 59.4557 88.6484 59.7865 88.6484 60.1562C88.6484 60.9948 88.362 61.6641 87.7891 62.1641C87.2161 62.6641 86.4297 62.9141 85.4297 62.9141C85.1745 62.9141 84.9349 62.8932 84.7109 62.8516C84.1589 63.1432 83.8828 63.5104 83.8828 63.9531C83.8828 64.1875 83.9792 64.362 84.1719 64.4766C84.3646 64.5859 84.6953 64.6406 85.1641 64.6406H86.6797C87.6068 64.6406 88.3177 64.8359 88.8125 65.2266C89.3125 65.6172 89.5625 66.1849 89.5625 66.9297C89.5625 67.8776 89.1823 68.599 88.4219 69.0938C87.6615 69.5938 86.5521 69.8438 85.0938 69.8438C83.974 69.8438 83.1094 69.6354 82.5 69.2188C81.8958 68.8021 81.5938 68.2135 81.5938 67.4531C81.5938 66.9323 81.7604 66.4818 82.0938 66.1016C82.4271 65.7214 82.8958 65.4635 83.5 65.3281C83.2812 65.2292 83.0964 65.0755 82.9453 64.8672C82.7995 64.6589 82.7266 64.4167 82.7266 64.1406C82.7266 63.8281 82.8099 63.5547 82.9766 63.3203C83.1432 63.0859 83.4062 62.8594 83.7656 62.6406C83.3229 62.4583 82.9609 62.1484 82.6797 61.7109C82.4036 61.2734 82.2656 60.7734 82.2656 60.2109C82.2656 59.2734 82.5469 58.5521 83.1094 58.0469C83.6719 57.5365 84.4688 57.2812 85.5 57.2812C85.9479 57.2812 86.3516 57.3333 86.7109 57.4375H89.6719ZM82.8438 67.4375C82.8438 67.901 83.0391 68.2526 83.4297 68.4922C83.8203 68.7318 84.3802 68.8516 85.1094 68.8516C86.1979 68.8516 87.0026 68.6875 87.5234 68.3594C88.0495 68.0365 88.3125 67.5964 88.3125 67.0391C88.3125 66.5755 88.1693 66.2526 87.8828 66.0703C87.5964 65.8932 87.0573 65.8047 86.2656 65.8047H84.7109C84.1224 65.8047 83.6641 65.9453 83.3359 66.2266C83.0078 66.5078 82.8438 66.9115 82.8438 67.4375ZM83.5469 60.1797C83.5469 60.7786 83.7161 61.2318 84.0547 61.5391C84.3932 61.8464 84.8646 62 85.4688 62C86.7344 62 87.3672 61.3854 87.3672 60.1562C87.3672 58.8698 86.7266 58.2266 85.4453 58.2266C84.8359 58.2266 84.3672 58.3906 84.0391 58.7188C83.7109 59.0469 83.5469 59.5339 83.5469 60.1797ZM92.7266 66H91.4297V57.4375H92.7266V66ZM91.3203 55.1172C91.3203 54.8203 91.3932 54.6042 91.5391 54.4688C91.6849 54.3281 91.8672 54.2578 92.0859 54.2578C92.2943 54.2578 92.474 54.3281 92.625 54.4688C92.776 54.6094 92.8516 54.8255 92.8516 55.1172C92.8516 55.4089 92.776 55.6276 92.625 55.7734C92.474 55.9141 92.2943 55.9844 92.0859 55.9844C91.8672 55.9844 91.6849 55.9141 91.5391 55.7734C91.3932 55.6276 91.3203 55.4089 91.3203 55.1172ZM100.953 66H94.7422V65.1172L99.4141 58.4453H95.0312V57.4375H100.836V58.4453L96.2266 64.9922H100.953V66Z" fill="black"/>
<rect x="24" y="104" width="300" height="56" rx="5" fill="#F3F3F3"/>
<path d="M45.5 138H44.1719V127.758H40.5547V126.578H49.1172V127.758H45.5V138ZM54.2656 138.156C53 138.156 52 137.771 51.2656 137C50.5365 136.229 50.1719 135.159 50.1719 133.789C50.1719 132.409 50.5104 131.312 51.1875 130.5C51.8698 129.688 52.7839 129.281 53.9297 129.281C55.0026 129.281 55.8516 129.635 56.4766 130.344C57.1016 131.047 57.4141 131.977 57.4141 133.133V133.953H51.5156C51.5417 134.958 51.7943 135.721 52.2734 136.242C52.7578 136.763 53.4375 137.023 54.3125 137.023C55.2344 137.023 56.1458 136.831 57.0469 136.445V137.602C56.5885 137.799 56.1536 137.94 55.7422 138.023C55.3359 138.112 54.8438 138.156 54.2656 138.156ZM53.9141 130.367C53.2266 130.367 52.6771 130.591 52.2656 131.039C51.8594 131.487 51.6198 132.107 51.5469 132.898H56.0234C56.0234 132.081 55.8411 131.456 55.4766 131.023C55.112 130.586 54.5911 130.367 53.9141 130.367ZM60.9297 138H59.6328V125.844H60.9297V138ZM67.2969 138.156C66.0312 138.156 65.0312 137.771 64.2969 137C63.5677 136.229 63.2031 135.159 63.2031 133.789C63.2031 132.409 63.5417 131.312 64.2188 130.5C64.901 129.688 65.8151 129.281 66.9609 129.281C68.0339 129.281 68.8828 129.635 69.5078 130.344C70.1328 131.047 70.4453 131.977 70.4453 133.133V133.953H64.5469C64.5729 134.958 64.8255 135.721 65.3047 136.242C65.7891 136.763 66.4688 137.023 67.3438 137.023C68.2656 137.023 69.1771 136.831 70.0781 136.445V137.602C69.6198 137.799 69.1849 137.94 68.7734 138.023C68.3672 138.112 67.875 138.156 67.2969 138.156ZM66.9453 130.367C66.2578 130.367 65.7083 130.591 65.2969 131.039C64.8906 131.487 64.651 132.107 64.5781 132.898H69.0547C69.0547 132.081 68.8724 131.456 68.5078 131.023C68.1432 130.586 67.6224 130.367 66.9453 130.367ZM76.5234 130.445H74.3438V138H73.0469V130.445H71.5156V129.859L73.0469 129.391V128.914C73.0469 126.81 73.9661 125.758 75.8047 125.758C76.2578 125.758 76.7891 125.849 77.3984 126.031L77.0625 127.07C76.5625 126.909 76.1354 126.828 75.7812 126.828C75.2917 126.828 74.9297 126.992 74.6953 127.32C74.4609 127.643 74.3438 128.164 74.3438 128.883V129.438H76.5234V130.445ZM85.4766 133.711C85.4766 135.107 85.125 136.198 84.4219 136.984C83.7188 137.766 82.7474 138.156 81.5078 138.156C80.7422 138.156 80.0625 137.977 79.4688 137.617C78.875 137.258 78.4167 136.742 78.0938 136.07C77.7708 135.398 77.6094 134.612 77.6094 133.711C77.6094 132.315 77.9583 131.229 78.6562 130.453C79.3542 129.672 80.3229 129.281 81.5625 129.281C82.7604 129.281 83.7109 129.68 84.4141 130.477C85.1224 131.273 85.4766 132.352 85.4766 133.711ZM78.9531 133.711C78.9531 134.805 79.1719 135.638 79.6094 136.211C80.0469 136.784 80.6901 137.07 81.5391 137.07C82.388 137.07 83.0312 136.786 83.4688 136.219C83.9115 135.646 84.1328 134.81 84.1328 133.711C84.1328 132.622 83.9115 131.797 83.4688 131.234C83.0312 130.667 82.3828 130.383 81.5234 130.383C80.6745 130.383 80.0339 130.661 79.6016 131.219C79.1693 131.776 78.9531 132.607 78.9531 133.711ZM93.6172 138V132.461C93.6172 131.763 93.4583 131.242 93.1406 130.898C92.8229 130.555 92.3255 130.383 91.6484 130.383C90.7526 130.383 90.0964 130.625 89.6797 131.109C89.263 131.594 89.0547 132.393 89.0547 133.508V138H87.7578V129.438H88.8125L89.0234 130.609H89.0859C89.3516 130.188 89.724 129.862 90.2031 129.633C90.6823 129.398 91.2161 129.281 91.8047 129.281C92.8359 129.281 93.612 129.531 94.1328 130.031C94.6536 130.526 94.9141 131.32 94.9141 132.414V138H93.6172ZM105.648 129.281C106.029 129.281 106.37 129.312 106.672 129.375L106.492 130.578C106.138 130.5 105.826 130.461 105.555 130.461C104.862 130.461 104.268 130.742 103.773 131.305C103.284 131.867 103.039 132.568 103.039 133.406V138H101.742V129.438H102.812L102.961 131.023H103.023C103.341 130.466 103.724 130.036 104.172 129.734C104.62 129.432 105.112 129.281 105.648 129.281ZM113.539 138L113.281 136.781H113.219C112.792 137.318 112.365 137.682 111.938 137.875C111.516 138.062 110.987 138.156 110.352 138.156C109.503 138.156 108.836 137.938 108.352 137.5C107.872 137.062 107.633 136.44 107.633 135.633C107.633 133.904 109.016 132.997 111.781 132.914L113.234 132.867V132.336C113.234 131.664 113.089 131.169 112.797 130.852C112.51 130.529 112.049 130.367 111.414 130.367C110.701 130.367 109.893 130.586 108.992 131.023L108.594 130.031C109.016 129.802 109.477 129.622 109.977 129.492C110.482 129.362 110.987 129.297 111.492 129.297C112.513 129.297 113.268 129.523 113.758 129.977C114.253 130.43 114.5 131.156 114.5 132.156V138H113.539ZM110.609 137.086C111.417 137.086 112.049 136.865 112.508 136.422C112.971 135.979 113.203 135.359 113.203 134.562V133.789L111.906 133.844C110.875 133.88 110.13 134.042 109.672 134.328C109.219 134.609 108.992 135.049 108.992 135.648C108.992 136.117 109.133 136.474 109.414 136.719C109.701 136.964 110.099 137.086 110.609 137.086ZM120.414 137.07C121.279 137.07 121.909 136.839 122.305 136.375C122.701 135.911 122.911 135.13 122.938 134.031V133.742C122.938 132.544 122.734 131.682 122.328 131.156C121.922 130.63 121.279 130.367 120.398 130.367C119.638 130.367 119.055 130.664 118.648 131.258C118.247 131.846 118.047 132.68 118.047 133.758C118.047 134.836 118.245 135.659 118.641 136.227C119.042 136.789 119.633 137.07 120.414 137.07ZM120.219 138.156C119.115 138.156 118.253 137.768 117.633 136.992C117.013 136.216 116.703 135.133 116.703 133.742C116.703 132.341 117.016 131.247 117.641 130.461C118.266 129.674 119.135 129.281 120.25 129.281C121.422 129.281 122.323 129.724 122.953 130.609H123.023L123.211 129.438H124.234V141.844H122.938V138.18C122.938 137.659 122.966 137.216 123.023 136.852H122.922C122.323 137.721 121.422 138.156 120.219 138.156ZM132.258 138L132 136.781H131.938C131.51 137.318 131.083 137.682 130.656 137.875C130.234 138.062 129.706 138.156 129.07 138.156C128.221 138.156 127.555 137.938 127.07 137.5C126.591 137.062 126.352 136.44 126.352 135.633C126.352 133.904 127.734 132.997 130.5 132.914L131.953 132.867V132.336C131.953 131.664 131.807 131.169 131.516 130.852C131.229 130.529 130.768 130.367 130.133 130.367C129.419 130.367 128.612 130.586 127.711 131.023L127.312 130.031C127.734 129.802 128.195 129.622 128.695 129.492C129.201 129.362 129.706 129.297 130.211 129.297C131.232 129.297 131.987 129.523 132.477 129.977C132.971 130.43 133.219 131.156 133.219 132.156V138H132.258ZM129.328 137.086C130.135 137.086 130.768 136.865 131.227 136.422C131.69 135.979 131.922 135.359 131.922 134.562V133.789L130.625 133.844C129.594 133.88 128.849 134.042 128.391 134.328C127.938 134.609 127.711 135.049 127.711 135.648C127.711 136.117 127.852 136.474 128.133 136.719C128.419 136.964 128.818 137.086 129.328 137.086ZM146.812 138V132.43C146.812 131.747 146.667 131.237 146.375 130.898C146.083 130.555 145.63 130.383 145.016 130.383C144.208 130.383 143.612 130.615 143.227 131.078C142.841 131.542 142.648 132.255 142.648 133.219V138H141.352V132.43C141.352 131.747 141.206 131.237 140.914 130.898C140.622 130.555 140.167 130.383 139.547 130.383C138.734 130.383 138.138 130.628 137.758 131.117C137.383 131.602 137.195 132.398 137.195 133.508V138H135.898V129.438H136.953L137.164 130.609H137.227C137.471 130.193 137.815 129.867 138.258 129.633C138.706 129.398 139.206 129.281 139.758 129.281C141.096 129.281 141.971 129.766 142.383 130.734H142.445C142.701 130.286 143.07 129.932 143.555 129.672C144.039 129.411 144.591 129.281 145.211 129.281C146.18 129.281 146.904 129.531 147.383 130.031C147.867 130.526 148.109 131.32 148.109 132.414V138H146.812ZM152.086 138H150.789V129.438H152.086V138ZM150.68 127.117C150.68 126.82 150.753 126.604 150.898 126.469C151.044 126.328 151.227 126.258 151.445 126.258C151.654 126.258 151.833 126.328 151.984 126.469C152.135 126.609 152.211 126.826 152.211 127.117C152.211 127.409 152.135 127.628 151.984 127.773C151.833 127.914 151.654 127.984 151.445 127.984C151.227 127.984 151.044 127.914 150.898 127.773C150.753 127.628 150.68 127.409 150.68 127.117ZM160.695 138V132.461C160.695 131.763 160.536 131.242 160.219 130.898C159.901 130.555 159.404 130.383 158.727 130.383C157.831 130.383 157.174 130.625 156.758 131.109C156.341 131.594 156.133 132.393 156.133 133.508V138H154.836V129.438H155.891L156.102 130.609H156.164C156.43 130.188 156.802 129.862 157.281 129.633C157.76 129.398 158.294 129.281 158.883 129.281C159.914 129.281 160.69 129.531 161.211 130.031C161.732 130.526 161.992 131.32 161.992 132.414V138H160.695ZM171.672 129.438V130.258L170.086 130.445C170.232 130.628 170.362 130.867 170.477 131.164C170.591 131.456 170.648 131.786 170.648 132.156C170.648 132.995 170.362 133.664 169.789 134.164C169.216 134.664 168.43 134.914 167.43 134.914C167.174 134.914 166.935 134.893 166.711 134.852C166.159 135.143 165.883 135.51 165.883 135.953C165.883 136.188 165.979 136.362 166.172 136.477C166.365 136.586 166.695 136.641 167.164 136.641H168.68C169.607 136.641 170.318 136.836 170.812 137.227C171.312 137.617 171.562 138.185 171.562 138.93C171.562 139.878 171.182 140.599 170.422 141.094C169.661 141.594 168.552 141.844 167.094 141.844C165.974 141.844 165.109 141.635 164.5 141.219C163.896 140.802 163.594 140.214 163.594 139.453C163.594 138.932 163.76 138.482 164.094 138.102C164.427 137.721 164.896 137.464 165.5 137.328C165.281 137.229 165.096 137.076 164.945 136.867C164.799 136.659 164.727 136.417 164.727 136.141C164.727 135.828 164.81 135.555 164.977 135.32C165.143 135.086 165.406 134.859 165.766 134.641C165.323 134.458 164.961 134.148 164.68 133.711C164.404 133.273 164.266 132.773 164.266 132.211C164.266 131.273 164.547 130.552 165.109 130.047C165.672 129.536 166.469 129.281 167.5 129.281C167.948 129.281 168.352 129.333 168.711 129.438H171.672ZM164.844 139.438C164.844 139.901 165.039 140.253 165.43 140.492C165.82 140.732 166.38 140.852 167.109 140.852C168.198 140.852 169.003 140.688 169.523 140.359C170.049 140.036 170.312 139.596 170.312 139.039C170.312 138.576 170.169 138.253 169.883 138.07C169.596 137.893 169.057 137.805 168.266 137.805H166.711C166.122 137.805 165.664 137.945 165.336 138.227C165.008 138.508 164.844 138.911 164.844 139.438ZM165.547 132.18C165.547 132.779 165.716 133.232 166.055 133.539C166.393 133.846 166.865 134 167.469 134C168.734 134 169.367 133.385 169.367 132.156C169.367 130.87 168.727 130.227 167.445 130.227C166.836 130.227 166.367 130.391 166.039 130.719C165.711 131.047 165.547 131.534 165.547 132.18ZM174.727 138H173.43V129.438H174.727V138ZM173.32 127.117C173.32 126.82 173.393 126.604 173.539 126.469C173.685 126.328 173.867 126.258 174.086 126.258C174.294 126.258 174.474 126.328 174.625 126.469C174.776 126.609 174.852 126.826 174.852 127.117C174.852 127.409 174.776 127.628 174.625 127.773C174.474 127.914 174.294 127.984 174.086 127.984C173.867 127.984 173.685 127.914 173.539 127.773C173.393 127.628 173.32 127.409 173.32 127.117ZM182.953 138H176.742V137.117L181.414 130.445H177.031V129.438H182.836V130.445L178.227 136.992H182.953V138Z" fill="black"/>
<rect x="24" y="176" width="300" height="56" rx="5" fill="#F3F3F3"/>
<path d="M47.4531 210H45.9453L42.875 204.977L39.75 210H38.3438L42.1406 204.031L38.6016 198.578H40.0703L42.9062 203.102L45.7656 198.578H47.1797L43.6406 203.984L47.4531 210ZM50.1875 210H48.8906V201.438H50.1875V210ZM48.7812 199.117C48.7812 198.82 48.8542 198.604 49 198.469C49.1458 198.328 49.3281 198.258 49.5469 198.258C49.7552 198.258 49.9349 198.328 50.0859 198.469C50.237 198.609 50.3125 198.826 50.3125 199.117C50.3125 199.409 50.237 199.628 50.0859 199.773C49.9349 199.914 49.7552 199.984 49.5469 199.984C49.3281 199.984 49.1458 199.914 49 199.773C48.8542 199.628 48.7812 199.409 48.7812 199.117ZM58.4141 210H52.2031V209.117L56.875 202.445H52.4922V201.438H58.2969V202.445L53.6875 208.992H58.4141V210ZM71.3359 210V204.43C71.3359 203.747 71.1901 203.237 70.8984 202.898C70.6068 202.555 70.1536 202.383 69.5391 202.383C68.7318 202.383 68.1354 202.615 67.75 203.078C67.3646 203.542 67.1719 204.255 67.1719 205.219V210H65.875V204.43C65.875 203.747 65.7292 203.237 65.4375 202.898C65.1458 202.555 64.6901 202.383 64.0703 202.383C63.2578 202.383 62.6615 202.628 62.2812 203.117C61.9062 203.602 61.7188 204.398 61.7188 205.508V210H60.4219V201.438H61.4766L61.6875 202.609H61.75C61.9948 202.193 62.3385 201.867 62.7812 201.633C63.2292 201.398 63.7292 201.281 64.2812 201.281C65.6198 201.281 66.4948 201.766 66.9062 202.734H66.9688C67.224 202.286 67.5938 201.932 68.0781 201.672C68.5625 201.411 69.1146 201.281 69.7344 201.281C70.7031 201.281 71.4271 201.531 71.9062 202.031C72.3906 202.526 72.6328 203.32 72.6328 204.414V210H71.3359ZM80.5781 210L80.3203 208.781H80.2578C79.8307 209.318 79.4036 209.682 78.9766 209.875C78.5547 210.062 78.026 210.156 77.3906 210.156C76.5417 210.156 75.875 209.938 75.3906 209.5C74.9115 209.062 74.6719 208.44 74.6719 207.633C74.6719 205.904 76.0547 204.997 78.8203 204.914L80.2734 204.867V204.336C80.2734 203.664 80.1276 203.169 79.8359 202.852C79.5495 202.529 79.0885 202.367 78.4531 202.367C77.7396 202.367 76.9323 202.586 76.0312 203.023L75.6328 202.031C76.0547 201.802 76.5156 201.622 77.0156 201.492C77.5208 201.362 78.026 201.297 78.5312 201.297C79.5521 201.297 80.3073 201.523 80.7969 201.977C81.2917 202.43 81.5391 203.156 81.5391 204.156V210H80.5781ZM77.6484 209.086C78.4557 209.086 79.0885 208.865 79.5469 208.422C80.0104 207.979 80.2422 207.359 80.2422 206.562V205.789L78.9453 205.844C77.9141 205.88 77.1693 206.042 76.7109 206.328C76.2578 206.609 76.0312 207.049 76.0312 207.648C76.0312 208.117 76.1719 208.474 76.4531 208.719C76.7396 208.964 77.138 209.086 77.6484 209.086ZM86.9844 209.086C87.2135 209.086 87.4349 209.07 87.6484 209.039C87.862 209.003 88.0312 208.966 88.1562 208.93V209.922C88.0156 209.99 87.8073 210.044 87.5312 210.086C87.2604 210.133 87.0156 210.156 86.7969 210.156C85.1406 210.156 84.3125 209.284 84.3125 207.539V202.445H83.0859V201.82L84.3125 201.281L84.8594 199.453H85.6094V201.438H88.0938V202.445H85.6094V207.484C85.6094 208 85.7318 208.396 85.9766 208.672C86.2214 208.948 86.5573 209.086 86.9844 209.086ZM96.7969 209.086C97.026 209.086 97.2474 209.07 97.4609 209.039C97.6745 209.003 97.8438 208.966 97.9688 208.93V209.922C97.8281 209.99 97.6198 210.044 97.3438 210.086C97.0729 210.133 96.8281 210.156 96.6094 210.156C94.9531 210.156 94.125 209.284 94.125 207.539V202.445H92.8984V201.82L94.125 201.281L94.6719 199.453H95.4219V201.438H97.9062V202.445H95.4219V207.484C95.4219 208 95.5443 208.396 95.7891 208.672C96.0339 208.948 96.3698 209.086 96.7969 209.086ZM100.906 201.438V206.992C100.906 207.69 101.065 208.211 101.383 208.555C101.701 208.898 102.198 209.07 102.875 209.07C103.771 209.07 104.424 208.826 104.836 208.336C105.253 207.846 105.461 207.047 105.461 205.938V201.438H106.758V210H105.688L105.5 208.852H105.43C105.164 209.273 104.794 209.596 104.32 209.82C103.852 210.044 103.315 210.156 102.711 210.156C101.669 210.156 100.888 209.909 100.367 209.414C99.8516 208.919 99.5938 208.128 99.5938 207.039V201.438H100.906ZM113.422 201.281C113.802 201.281 114.143 201.312 114.445 201.375L114.266 202.578C113.911 202.5 113.599 202.461 113.328 202.461C112.635 202.461 112.042 202.742 111.547 203.305C111.057 203.867 110.812 204.568 110.812 205.406V210H109.516V201.438H110.586L110.734 203.023H110.797C111.115 202.466 111.497 202.036 111.945 201.734C112.393 201.432 112.885 201.281 113.422 201.281ZM117.344 210H116.047V201.438H117.344V210ZM115.938 199.117C115.938 198.82 116.01 198.604 116.156 198.469C116.302 198.328 116.484 198.258 116.703 198.258C116.911 198.258 117.091 198.328 117.242 198.469C117.393 198.609 117.469 198.826 117.469 199.117C117.469 199.409 117.393 199.628 117.242 199.773C117.091 199.914 116.911 199.984 116.703 199.984C116.484 199.984 116.302 199.914 116.156 199.773C116.01 199.628 115.938 199.409 115.938 199.117Z" fill="black"/>
<path d="M296 212L302.928 200H289.072L296 212Z" fill="black"/>
<path d="M90.5 253C90.5 250.239 92.7386 248 95.5 248H252.5C255.261 248 257.5 250.239 257.5 253V283C257.5 285.761 255.261 288 252.5 288H95.5C92.7386 288 90.5 285.761 90.5 283V253Z" fill="#00BAFC"/>
<path d="M107.938 262.578H111.492C113.112 262.578 114.286 262.81 115.016 263.273C115.75 263.732 116.117 264.464 116.117 265.469C116.117 266.151 115.956 266.711 115.633 267.148C115.315 267.586 114.891 267.849 114.359 267.938V268.016C115.083 268.177 115.604 268.479 115.922 268.922C116.245 269.365 116.406 269.953 116.406 270.688C116.406 271.729 116.029 272.542 115.273 273.125C114.523 273.708 113.503 274 112.211 274H107.938V262.578ZM110.359 267.102H111.766C112.422 267.102 112.896 267 113.188 266.797C113.484 266.594 113.633 266.258 113.633 265.789C113.633 265.352 113.471 265.039 113.148 264.852C112.831 264.659 112.326 264.562 111.633 264.562H110.359V267.102ZM110.359 269.023V272H111.938C112.604 272 113.096 271.872 113.414 271.617C113.732 271.362 113.891 270.971 113.891 270.445C113.891 269.497 113.214 269.023 111.859 269.023H110.359ZM124.688 274L124.367 272.883H124.242C123.987 273.289 123.625 273.604 123.156 273.828C122.688 274.047 122.154 274.156 121.555 274.156C120.529 274.156 119.755 273.883 119.234 273.336C118.714 272.784 118.453 271.992 118.453 270.961V265.266H120.836V270.367C120.836 270.997 120.948 271.471 121.172 271.789C121.396 272.102 121.753 272.258 122.242 272.258C122.909 272.258 123.391 272.036 123.688 271.594C123.984 271.146 124.133 270.406 124.133 269.375V265.266H126.516V274H124.688ZM127.766 265.266H130.375L132.023 270.18C132.164 270.607 132.26 271.112 132.312 271.695H132.359C132.417 271.159 132.529 270.654 132.695 270.18L134.312 265.266H136.867L133.172 275.117C132.833 276.029 132.349 276.711 131.719 277.164C131.094 277.617 130.362 277.844 129.523 277.844C129.112 277.844 128.708 277.799 128.312 277.711V275.82C128.599 275.888 128.911 275.922 129.25 275.922C129.672 275.922 130.039 275.792 130.352 275.531C130.669 275.276 130.917 274.888 131.094 274.367L131.234 273.938L127.766 265.266ZM144.312 274L143.992 272.883H143.867C143.612 273.289 143.25 273.604 142.781 273.828C142.312 274.047 141.779 274.156 141.18 274.156C140.154 274.156 139.38 273.883 138.859 273.336C138.339 272.784 138.078 271.992 138.078 270.961V265.266H140.461V270.367C140.461 270.997 140.573 271.471 140.797 271.789C141.021 272.102 141.378 272.258 141.867 272.258C142.534 272.258 143.016 272.036 143.312 271.594C143.609 271.146 143.758 270.406 143.758 269.375V265.266H146.141V274H144.312ZM153.516 265.102C153.839 265.102 154.107 265.125 154.32 265.172L154.141 267.406C153.948 267.354 153.714 267.328 153.438 267.328C152.677 267.328 152.083 267.523 151.656 267.914C151.234 268.305 151.023 268.852 151.023 269.555V274H148.641V265.266H150.445L150.797 266.734H150.914C151.185 266.245 151.549 265.852 152.008 265.555C152.471 265.253 152.974 265.102 153.516 265.102ZM159.586 272.258C160.003 272.258 160.503 272.167 161.086 271.984V273.758C160.492 274.023 159.763 274.156 158.898 274.156C157.945 274.156 157.25 273.917 156.812 273.438C156.38 272.953 156.164 272.229 156.164 271.266V267.055H155.023V266.047L156.336 265.25L157.023 263.406H158.547V265.266H160.992V267.055H158.547V271.266C158.547 271.604 158.641 271.854 158.828 272.016C159.021 272.177 159.273 272.258 159.586 272.258ZM170.68 274H168.297V268.898C168.297 268.268 168.19 267.797 167.977 267.484C167.768 267.167 167.438 267.008 166.984 267.008C166.375 267.008 165.932 267.232 165.656 267.68C165.38 268.128 165.242 268.865 165.242 269.891V274H162.859V265.266H164.68L165 266.383H165.133C165.367 265.982 165.706 265.669 166.148 265.445C166.591 265.216 167.099 265.102 167.672 265.102C168.979 265.102 169.865 265.529 170.328 266.383H170.539C170.773 265.977 171.117 265.661 171.57 265.438C172.029 265.214 172.544 265.102 173.117 265.102C174.107 265.102 174.854 265.357 175.359 265.867C175.87 266.372 176.125 267.185 176.125 268.305V274H173.734V268.898C173.734 268.268 173.628 267.797 173.414 267.484C173.206 267.167 172.875 267.008 172.422 267.008C171.839 267.008 171.401 267.216 171.109 267.633C170.823 268.049 170.68 268.711 170.68 269.617V274ZM184.125 274L183.664 272.812H183.602C183.201 273.318 182.786 273.669 182.359 273.867C181.938 274.06 181.385 274.156 180.703 274.156C179.865 274.156 179.203 273.917 178.719 273.438C178.24 272.958 178 272.276 178 271.391C178 270.464 178.323 269.781 178.969 269.344C179.62 268.901 180.599 268.656 181.906 268.609L183.422 268.562V268.18C183.422 267.294 182.969 266.852 182.062 266.852C181.365 266.852 180.544 267.062 179.602 267.484L178.812 265.875C179.818 265.349 180.932 265.086 182.156 265.086C183.328 265.086 184.227 265.341 184.852 265.852C185.477 266.362 185.789 267.138 185.789 268.18V274H184.125ZM183.422 269.953L182.5 269.984C181.807 270.005 181.292 270.13 180.953 270.359C180.615 270.589 180.445 270.938 180.445 271.406C180.445 272.078 180.831 272.414 181.602 272.414C182.154 272.414 182.594 272.255 182.922 271.938C183.255 271.62 183.422 271.198 183.422 270.672V269.953ZM197.266 265.102C198.297 265.102 199.104 265.505 199.688 266.312C200.271 267.115 200.562 268.216 200.562 269.617C200.562 271.06 200.26 272.177 199.656 272.969C199.057 273.76 198.24 274.156 197.203 274.156C196.177 274.156 195.372 273.784 194.789 273.039H194.625L194.227 274H192.406V261.844H194.789V264.672C194.789 265.031 194.758 265.607 194.695 266.398H194.789C195.346 265.534 196.172 265.102 197.266 265.102ZM196.5 267.008C195.911 267.008 195.482 267.19 195.211 267.555C194.94 267.914 194.799 268.51 194.789 269.344V269.602C194.789 270.539 194.927 271.211 195.203 271.617C195.484 272.023 195.927 272.227 196.531 272.227C197.021 272.227 197.409 272.003 197.695 271.555C197.987 271.102 198.133 270.445 198.133 269.586C198.133 268.727 197.987 268.083 197.695 267.656C197.404 267.224 197.005 267.008 196.5 267.008ZM206.148 266.797C205.643 266.797 205.247 266.958 204.961 267.281C204.674 267.599 204.51 268.052 204.469 268.641H207.812C207.802 268.052 207.648 267.599 207.352 267.281C207.055 266.958 206.654 266.797 206.148 266.797ZM206.484 274.156C205.078 274.156 203.979 273.768 203.188 272.992C202.396 272.216 202 271.117 202 269.695C202 268.232 202.365 267.102 203.094 266.305C203.828 265.503 204.841 265.102 206.133 265.102C207.367 265.102 208.328 265.453 209.016 266.156C209.703 266.859 210.047 267.831 210.047 269.07V270.227H204.414C204.44 270.904 204.641 271.432 205.016 271.812C205.391 272.193 205.917 272.383 206.594 272.383C207.12 272.383 207.617 272.328 208.086 272.219C208.555 272.109 209.044 271.935 209.555 271.695V273.539C209.138 273.747 208.693 273.901 208.219 274C207.745 274.104 207.167 274.156 206.484 274.156ZM216.859 265.102C217.182 265.102 217.451 265.125 217.664 265.172L217.484 267.406C217.292 267.354 217.057 267.328 216.781 267.328C216.021 267.328 215.427 267.523 215 267.914C214.578 268.305 214.367 268.852 214.367 269.555V274H211.984V265.266H213.789L214.141 266.734H214.258C214.529 266.245 214.893 265.852 215.352 265.555C215.815 265.253 216.318 265.102 216.859 265.102ZM219.148 263.008C219.148 262.232 219.581 261.844 220.445 261.844C221.31 261.844 221.742 262.232 221.742 263.008C221.742 263.378 221.633 263.667 221.414 263.875C221.201 264.078 220.878 264.18 220.445 264.18C219.581 264.18 219.148 263.789 219.148 263.008ZM221.633 274H219.25V265.266H221.633V274ZM230.234 271.406C230.234 272.302 229.922 272.984 229.297 273.453C228.677 273.922 227.747 274.156 226.508 274.156C225.872 274.156 225.331 274.112 224.883 274.023C224.435 273.94 224.016 273.815 223.625 273.648V271.68C224.068 271.888 224.565 272.062 225.117 272.203C225.674 272.344 226.164 272.414 226.586 272.414C227.451 272.414 227.883 272.164 227.883 271.664C227.883 271.477 227.826 271.326 227.711 271.211C227.596 271.091 227.398 270.958 227.117 270.812C226.836 270.661 226.461 270.487 225.992 270.289C225.32 270.008 224.826 269.747 224.508 269.508C224.195 269.268 223.966 268.995 223.82 268.688C223.68 268.375 223.609 267.992 223.609 267.539C223.609 266.763 223.909 266.164 224.508 265.742C225.112 265.315 225.966 265.102 227.07 265.102C228.122 265.102 229.146 265.331 230.141 265.789L229.422 267.508C228.984 267.32 228.576 267.167 228.195 267.047C227.815 266.927 227.427 266.867 227.031 266.867C226.328 266.867 225.977 267.057 225.977 267.438C225.977 267.651 226.089 267.836 226.312 267.992C226.542 268.148 227.039 268.38 227.805 268.688C228.487 268.964 228.987 269.221 229.305 269.461C229.622 269.701 229.857 269.977 230.008 270.289C230.159 270.602 230.234 270.974 230.234 271.406ZM240.156 274H237.773V268.898C237.773 267.638 237.305 267.008 236.367 267.008C235.701 267.008 235.219 267.234 234.922 267.688C234.625 268.141 234.477 268.875 234.477 269.891V274H232.094V261.844H234.477V264.32C234.477 264.513 234.458 264.966 234.422 265.68L234.367 266.383H234.492C235.023 265.529 235.867 265.102 237.023 265.102C238.049 265.102 238.828 265.378 239.359 265.93C239.891 266.482 240.156 267.273 240.156 268.305V274Z" fill="white"/>
</svg>
